<svg width="46" height="46" viewBox="0 0 46 46" fill="none" xmlns="http://www.w3.org/2000/svg">
<path d="M30.6384 17.7736C30.0849 17.4328 29.3653 17.4328 28.7565 17.7736L24.4391 20.387L21.5055 22.0913L17.1882 24.7047C16.6347 25.0455 15.9151 25.0455 15.3063 24.7047L11.8745 22.6594C11.321 22.3186 10.9336 21.6936 10.9336 21.0119V16.9783C10.9336 16.2965 11.2657 15.6716 11.8745 15.3307L15.2509 13.3423C15.8044 13.0014 16.524 13.0014 17.1328 13.3423L20.5092 15.3307C21.0627 15.6716 21.4502 16.2965 21.4502 16.9783V19.5916L24.3838 17.8304V15.2171C24.3838 14.5354 24.0517 13.9104 23.4428 13.5696L17.1882 9.81998C16.6347 9.47911 15.9151 9.47911 15.3063 9.81998L8.94096 13.5696C8.3321 13.9104 8 14.5354 8 15.2171V22.7731C8 23.4548 8.3321 24.0797 8.94096 24.4206L15.3063 28.1702C15.8598 28.511 16.5793 28.511 17.1882 28.1702L21.5055 25.6136L24.4391 23.8525L28.7565 21.2959C29.31 20.9551 30.0295 20.9551 30.6384 21.2959L34.0148 23.2844C34.5683 23.6252 34.9557 24.2502 34.9557 24.9319V28.9655C34.9557 29.6473 34.6236 30.2722 34.0148 30.6131L30.6384 32.6583C30.0849 32.9992 29.3653 32.9992 28.7565 32.6583L25.3801 30.6699C24.8266 30.329 24.4391 29.7041 24.4391 29.0223V26.409L21.5055 28.1702V30.7835C21.5055 31.4652 21.8376 32.0902 22.4465 32.431L28.8118 36.1806C29.3653 36.5215 30.0849 36.5215 30.6937 36.1806L37.059 32.431C37.6125 32.0902 38 31.4652 38 30.7835V23.2275C38 22.5458 37.6679 21.9209 37.059 21.58L30.6384 17.7736Z" fill="#7950DD"/>
</svg>
